<svg width="21.666656" height="21.666748" viewBox="0 0 21.6667 21.6667" fill="none" xmlns="http://www.w3.org/2000/svg" xmlns:xlink="http://www.w3.org/1999/xlink">
	<desc>
			Created with Pixso.
	</desc>
	<defs/>
	<path id="Vector" d="M0.00476074 10.5085C0.00158691 10.6165 0 10.7246 0 10.8333C0 10.9419 0.00158691 11.05 0.00476074 11.158C4.39349 11.2126 6.86063 11.5129 8.50723 13.1594C10.1537 14.8062 10.4539 17.2732 10.5087 21.6619C10.6165 21.665 10.7248 21.6667 10.8333 21.6667C10.9419 21.6667 11.0502 21.665 11.158 21.6619C11.2127 17.2732 11.5129 14.8062 13.1594 13.1594C14.806 11.5129 17.2732 11.2126 21.6619 11.158C21.6651 11.05 21.6667 10.9419 21.6667 10.8333C21.6667 10.7246 21.6651 10.6165 21.6619 10.5085C17.2732 10.4539 14.806 10.1538 13.1594 8.50708C11.5129 6.8606 11.2127 4.39355 11.158 0.00488281C11.0502 0.00170898 10.9419 0 10.8333 0C10.7248 0 10.6165 0.00170898 10.5087 0.00488281C10.4539 4.39355 10.1537 6.8606 8.50723 8.50708C6.86063 10.1538 4.39346 10.4539 0.00476074 10.5085Z" fill="#FCFCFC" fill-opacity="1.000000" fill-rule="evenodd"/>
</svg>
