<svg width="20.841461" height="12.381348" viewBox="0 0 20.8415 12.3813" fill="none" xmlns="http://www.w3.org/2000/svg" xmlns:xlink="http://www.w3.org/1999/xlink">
	<desc>
			Created with Pixso.
	</desc>
	<defs/>
	<path id="Vector" d="M20.003 12.3804L17.722 12.3804C16.859 12.3804 16.599 11.6814 15.052 10.1333C13.7 8.83032 13.129 8.66846 12.787 8.66846C12.314 8.66846 12.185 8.79834 12.185 9.44946L12.185 11.5015C12.185 12.0564 12.005 12.3813 10.555 12.3813C9.14828 12.2869 7.78415 11.8596 6.57498 11.1345C5.36578 10.4094 4.34613 9.40771 3.60001 8.21143C1.8284 6.00635 0.595703 3.41846 0 0.65332C0 0.311279 0.130005 0.00146484 0.782013 0.00146484L3.06201 0.00146484C3.64801 0.00146484 3.85901 0.262451 4.08899 0.865479C5.19601 4.12329 7.08499 6.95728 7.85199 6.95728C8.146 6.95728 8.27399 6.82739 8.27399 6.09424L8.27399 2.73828C8.177 1.20728 7.36401 1.07837 7.36401 0.524414C7.3743 0.378174 7.44113 0.241699 7.55038 0.144043C7.65961 0.0463867 7.80261 -0.00463867 7.94901 0.00146484L11.533 0.00146484C12.023 0.00146484 12.185 0.245361 12.185 0.831299L12.185 5.36133C12.185 5.85034 12.395 6.01245 12.543 6.01245C12.837 6.01245 13.063 5.85034 13.602 5.31226C14.7574 3.90332 15.7013 2.3335 16.404 0.652344C16.4759 0.450439 16.6119 0.277832 16.7912 0.1604C16.9705 0.0429688 17.1832 -0.0124512 17.397 0.00244141L19.678 0.00244141C20.362 0.00244141 20.507 0.344238 20.362 0.832275C19.5324 2.69067 18.5058 4.45483 17.3 6.09424C17.054 6.46924 16.956 6.66431 17.3 7.10425C17.526 7.44629 18.326 8.11426 18.863 8.74927C19.645 9.5293 20.294 10.4314 20.785 11.4194C20.981 12.0554 20.654 12.3804 20.003 12.3804Z" fill="#FCFCFC" fill-opacity="1.000000" fill-rule="evenodd"/>
</svg>
