<svg width="151.426270" height="28.000000" viewBox="0 0 151.426 28" fill="none" xmlns="http://www.w3.org/2000/svg" xmlns:xlink="http://www.w3.org/1999/xlink">
	<desc>
			Created with Pixso.
	</desc>
	<defs>
		<linearGradient id="paint_linear_4_266_0" x1="0.000000" y1="0.000000" x2="144.000000" y2="0.000000" gradientUnits="userSpaceOnUse">
			<stop offset="0.375000" stop-color="#FFFFFF"/>
			<stop offset="1.000000" stop-color="#FFFFFF" stop-opacity="0.000000"/>
		</linearGradient>
	</defs>
	<g opacity="0.600000">
		<path id="В Москве и Южно-Сахалинске" d="M1.35693 13.0024L1.35693 23L2.61816 23L2.61816 14.1099L7.61523 14.1099L7.61523 23L8.86279 23L8.86279 13.0024L1.35693 13.0024ZM17.0449 22.0704Q17.9484 21.0531 17.9484 19.2334Q17.9484 17.9893 17.5074 17.1279Q17.1906 16.5091 16.6991 16.1002Q16.5066 15.94 16.2872 15.812Q16.2416 15.7853 16.1951 15.7601Q15.4512 15.3574 14.4894 15.3574Q13.3046 15.3574 12.4827 15.9035Q12.1878 16.0995 11.9396 16.3657Q11.9309 16.3751 11.9223 16.3845Q11.003 17.3879 11.003 19.2334Q11.003 20.481 11.4508 21.356Q11.7986 22.0357 12.3445 22.4617Q12.5013 22.5841 12.6744 22.6855Q12.7941 22.7553 12.9188 22.8144Q13.6064 23.1401 14.4484 23.1401Q15.6087 23.1401 16.4228 22.6092Q16.7382 22.4035 17.0016 22.1182Q17.0235 22.0945 17.0449 22.0704ZM35.9589 22.0704Q36.8624 21.0531 36.8624 19.2334Q36.8624 17.9893 36.4214 17.1279Q36.1046 16.5091 35.6131 16.1002Q35.4206 15.94 35.2012 15.812Q35.1556 15.7853 35.1091 15.7601Q34.3652 15.3574 33.4034 15.3574Q32.2186 15.3574 31.3967 15.9035Q31.1018 16.0995 30.8536 16.3657Q30.8449 16.3751 30.8363 16.3845Q29.917 17.3879 29.917 19.2334Q29.917 20.481 30.3648 21.356Q30.7126 22.0357 31.2585 22.4617Q31.4153 22.5841 31.5884 22.6855Q31.7081 22.7553 31.8328 22.8144Q32.5204 23.1401 33.3624 23.1401Q34.5227 23.1401 35.3368 22.6092Q35.6522 22.4035 35.9156 22.1182Q35.9375 22.0945 35.9589 22.0704ZM57.2796 15.7778Q56.5892 15.3574 55.6219 15.3574Q54.7715 15.3574 54.101 15.7047Q53.9873 15.7636 53.8787 15.8325Q53.7237 15.9309 53.5831 16.0467Q53.0446 16.4902 52.7166 17.1895Q52.303 18.0713 52.303 19.3052Q52.303 20.5493 52.7576 21.4106Q53.0572 21.974 53.5103 22.3546Q53.7499 22.5559 54.0325 22.7061Q54.8528 23.1401 55.9158 23.1401Q56.6849 23.1401 57.2454 23.0205Q57.806 22.9009 58.3802 22.6514L58.3802 21.5713Q57.7923 21.8242 57.2386 21.9575Q56.6849 22.0908 55.9705 22.0908Q55.0689 22.0908 54.4876 21.6593Q54.3483 21.5559 54.2274 21.4277Q53.6053 20.7612 53.5779 19.4863L58.7152 19.4863L58.7152 18.7446Q58.7152 17.7227 58.3426 16.9604Q58.1034 16.4644 57.728 16.1147Q57.5239 15.9247 57.2796 15.7778ZM87.7484 22.0704Q88.6519 21.0531 88.6519 19.2334Q88.6519 17.9893 88.2109 17.1279Q87.8941 16.5091 87.4026 16.1002Q87.2101 15.94 86.9907 15.812Q86.9451 15.7853 86.8986 15.7601Q86.1547 15.3574 85.1929 15.3574Q84.0081 15.3574 83.1862 15.9035Q82.8913 16.0995 82.6431 16.3657Q82.6344 16.3751 82.6258 16.3845Q81.7065 17.3879 81.7065 19.2334Q81.7065 20.481 82.1543 21.356Q82.5021 22.0357 83.048 22.4617Q83.2048 22.5841 83.3779 22.6855Q83.4976 22.7553 83.6223 22.8144Q84.3099 23.1401 85.1519 23.1401Q86.3122 23.1401 87.1263 22.6092Q87.4417 22.4035 87.7051 22.1182Q87.727 22.0945 87.7484 22.0704ZM49.7401 15.9727Q49.0838 15.3711 47.7132 15.3711Q46.9852 15.3711 46.3118 15.5591Q45.6385 15.7471 45.1497 16.0137L45.5291 16.9365Q45.9905 16.7144 46.5203 16.54Q46.5578 16.5275 46.5955 16.5159Q47.0948 16.3623 47.6414 16.3623Q48.3831 16.3623 48.7899 16.728Q49.1966 17.0903 49.1966 18.0303L49.1966 18.478L47.9217 18.519Q46.0897 18.5771 45.2044 19.1855Q44.8097 19.4579 44.5917 19.8329Q44.3226 20.2957 44.3226 20.915Q44.3226 21.8894 44.8073 22.4258Q44.8939 22.5217 44.9959 22.6035Q45.0834 22.6732 45.1768 22.7339Q45.8021 23.1401 46.6912 23.1401Q47.6414 23.1401 48.1815 22.8462Q48.7215 22.5522 49.2103 21.937L49.265 21.937L49.5042 23L50.3997 23L50.3997 17.8901Q50.3997 16.5818 49.7476 15.9796Q49.7439 15.9761 49.7401 15.9727ZM114.648 15.9727Q113.991 15.3711 112.621 15.3711Q111.893 15.3711 111.219 15.5591Q110.546 15.7471 110.057 16.0137L110.437 16.9365Q110.898 16.7144 111.428 16.54Q111.465 16.5275 111.503 16.5159Q112.002 16.3623 112.549 16.3623Q113.291 16.3623 113.697 16.728Q114.104 17.0903 114.104 18.0303L114.104 18.478L112.829 18.519Q110.997 18.5771 110.112 19.1855Q109.717 19.4579 109.499 19.8329Q109.23 20.2957 109.23 20.915Q109.23 21.8894 109.715 22.4258Q109.801 22.5217 109.903 22.6035Q109.991 22.6732 110.084 22.7339Q110.71 23.1401 111.599 23.1401Q112.549 23.1401 113.089 22.8462Q113.629 22.5522 114.118 21.937L114.172 21.937L114.412 23L115.307 23L115.307 17.8901Q115.307 16.5818 114.655 15.9796Q114.651 15.9761 114.648 15.9727ZM27.9428 23L27.9428 15.4976L26.3056 15.4976L23.8993 21.5303L21.5307 15.4976L19.8935 15.4976L19.8935 23L21.0009 23L21.0009 18.2524Q21.0009 17.5962 20.9564 16.9673L21.0009 16.9673L23.3798 23L24.4154 23L26.8661 16.9673L26.9071 16.9673Q26.8798 17.2749 26.8593 17.5962Q26.8388 17.9175 26.8388 18.2114L26.8388 23L27.9428 23ZM43.3875 16.5332L43.3875 15.4976L38.8075 15.4976L38.8075 23L40.0413 23L40.0413 16.5332L43.3875 16.5332ZM68.6688 23L68.6688 15.4976L67.0316 15.4976L64.6253 21.5303L62.2567 15.4976L60.6195 15.4976L60.6195 23L61.7269 23L61.7269 18.2524Q61.7269 17.5962 61.6824 16.9673L61.7269 16.9673L64.1058 23L65.1414 23L67.5921 16.9673L67.6331 16.9673Q67.6058 17.2749 67.5853 17.5962Q67.5648 17.9175 67.5648 18.2114L67.5648 23L68.6688 23ZM80.7842 15.4976L79.4409 15.4976L76.2348 19.1377L76.2348 15.4976L75.001 15.4976L75.001 23L76.2348 23L76.2348 19.1924L79.622 23L81.0508 23L77.5781 19.1069L80.7842 15.4976ZM98.6463 23L98.6463 15.4976L97.0091 15.4976L94.6028 21.5303L92.2342 15.4976L90.597 15.4976L90.597 23L91.7044 23L91.7044 18.2524Q91.7044 17.5962 91.6599 16.9673L91.7044 16.9673L94.0833 23L95.1189 23L97.5696 16.9673L97.6106 16.9673Q97.5833 17.2749 97.5628 17.5962Q97.5423 17.9175 97.5423 18.2114L97.5423 23L98.6463 23ZM107.385 23L107.385 15.4976L101.041 15.4976L101.041 23L102.275 23L102.275 16.5469L106.151 16.5469L106.151 23L107.385 23ZM118.865 18.6182L118.865 15.4976L117.631 15.4976L117.631 23L118.865 23L118.865 19.6538L122.939 19.6538L122.939 23L124.17 23L124.17 15.4976L122.939 15.4976L122.939 18.6182L118.865 18.6182ZM127.697 20.5801Q127.711 20.2417 127.711 20.0742L127.711 15.4976L126.549 15.4976L126.549 23L128.077 23L132.066 16.728Q132.052 16.9092 132.038 17.2681Q132.025 17.6235 132.018 17.9893Q132.011 18.3516 132.011 18.5771L132.011 23L133.156 23L133.156 15.4976L131.645 15.4976L127.629 21.7832Q127.643 21.585 127.663 21.25Q127.684 20.915 127.697 20.5801ZM134.587 23L136.012 23L137.947 20.0195L139.765 20.0195L139.765 23L140.999 23L140.999 15.4976L137.636 15.4976Q136.433 15.4976 135.705 16.0649Q135.486 16.2342 135.333 16.4498Q134.977 16.953 134.977 17.709Q134.977 18.3652 135.23 18.8062Q135.43 19.1545 135.723 19.3813Q135.801 19.4415 135.886 19.4932Q136.293 19.7393 136.727 19.8486L134.587 23ZM151.426 23L151.426 15.4976L149.789 15.4976L147.383 21.5303L145.014 15.4976L143.377 15.4976L143.377 23L144.484 23L144.484 18.2524Q144.484 17.5962 144.44 16.9673L144.484 16.9673L146.863 23L147.899 23L150.35 16.9673L150.391 16.9673Q150.363 17.2749 150.343 17.5962Q150.322 17.9175 150.322 18.2114L150.322 23L151.426 23ZM54.5415 16.6487Q54.9817 16.3623 55.6082 16.3623Q56.3304 16.3623 56.7538 16.718Q56.8795 16.8235 56.9788 16.9604Q57.4129 17.5552 57.4266 18.5054L53.6053 18.5054Q53.7044 17.4971 54.2137 16.9297Q54.3621 16.7654 54.5415 16.6487ZM12.8009 21.3423Q12.2779 20.563 12.2779 19.2334Q12.2779 17.9038 12.7941 17.1484Q12.9252 16.9578 13.0964 16.8152Q13.6035 16.3931 14.462 16.3931Q15.3179 16.3931 15.8302 16.8126Q16.0053 16.956 16.1403 17.1484Q16.6735 17.9038 16.6735 19.2334Q16.6735 20.563 16.1403 21.3423Q15.9862 21.5679 15.781 21.7279Q15.2805 22.1182 14.4757 22.1182Q13.6461 22.1182 13.1411 21.7133Q12.947 21.5577 12.8009 21.3423ZM31.7149 21.3423Q31.1919 20.563 31.1919 19.2334Q31.1919 17.9038 31.7081 17.1484Q31.8392 16.9578 32.0104 16.8152Q32.5175 16.3931 33.376 16.3931Q34.2319 16.3931 34.7442 16.8126Q34.9193 16.956 35.0543 17.1484Q35.5875 17.9038 35.5875 19.2334Q35.5875 20.563 35.0543 21.3423Q34.9002 21.5679 34.695 21.7279Q34.1945 22.1182 33.3897 22.1182Q32.5601 22.1182 32.0551 21.7133Q31.861 21.5577 31.7149 21.3423ZM83.5044 21.3423Q82.9814 20.563 82.9814 19.2334Q82.9814 17.9038 83.4976 17.1484Q83.6287 16.9578 83.7999 16.8152Q84.307 16.3931 85.1655 16.3931Q86.0214 16.3931 86.5337 16.8126Q86.7088 16.956 86.8438 17.1484Q87.377 17.9038 87.377 19.2334Q87.377 20.563 86.8438 21.3423Q86.6897 21.5679 86.4845 21.7279Q85.984 22.1182 85.1792 22.1182Q84.3496 22.1182 83.8446 21.7133Q83.6505 21.5577 83.5044 21.3423ZM136.35 18.3927Q136.166 18.1197 136.166 17.7227Q136.166 17.4016 136.3 17.1525Q136.388 16.9878 136.535 16.8545Q136.908 16.5195 137.762 16.5195L139.765 16.5195L139.765 18.9976L138.002 18.9976Q137.133 18.9976 136.648 18.6831Q136.464 18.5616 136.35 18.3927ZM46.1375 19.8247Q46.6776 19.4316 48.0755 19.3735L49.1829 19.3325L49.1829 20.0024Q49.1829 20.9429 48.7155 21.4638Q48.6393 21.5488 48.5506 21.6226Q48.4314 21.7217 48.3006 21.802Q47.7416 22.1455 46.9715 22.1455Q46.3752 22.1455 45.9914 21.8599Q45.9858 21.8558 45.9803 21.8516Q45.9092 21.7969 45.8512 21.7307Q45.5975 21.4407 45.5975 20.9287Q45.5975 20.5114 45.7818 20.2049Q45.9129 19.9867 46.1375 19.8247ZM111.045 19.8247Q111.585 19.4316 112.983 19.3735L114.09 19.3325L114.09 20.0024Q114.09 20.9429 113.623 21.4638Q113.547 21.5488 113.458 21.6226Q113.339 21.7217 113.208 21.802Q112.649 22.1455 111.879 22.1455Q111.283 22.1455 110.899 21.8599Q110.893 21.8558 110.888 21.8516Q110.817 21.7969 110.759 21.7307Q110.505 21.4407 110.505 20.9287Q110.505 20.5114 110.689 20.2049Q110.82 19.9867 111.045 19.8247Z" fill="#FCFCFC" fill-opacity="1.000000" fill-rule="evenodd"/>
	</g>
	<rect id="Frame 277131487" width="143.000000" height="27.000000" transform="translate(0.500000 0.500000)" stroke="url(#paint_linear_4_266_0)" stroke-opacity="0.320000" stroke-width="1.000000"/>
</svg>
