<svg width="14.026306" height="14.026367" viewBox="0 0 14.0263 14.0264" fill="none" xmlns="http://www.w3.org/2000/svg" xmlns:xlink="http://www.w3.org/1999/xlink">
	<desc>
			Created with Pixso.
	</desc>
	<defs/>
	<path id="Vector" d="M7.01312 0C3.14191 0 0 3.14185 0 7.01318C0 10.8843 3.14191 14.0264 7.01312 14.0264C10.8844 14.0264 14.0263 10.8843 14.0263 7.01318C14.0263 3.14185 10.8844 0 7.01312 0ZM10.2672 4.76904C10.162 5.87695 9.70618 8.57007 9.47473 9.81128C9.37659 10.3374 9.18018 10.5127 8.99786 10.5337C8.59113 10.5688 8.28253 10.2673 7.88977 10.0078C7.27264 9.60107 6.922 9.34863 6.32587 8.95581C5.63153 8.5 6.08038 8.24756 6.48016 7.84058C6.58533 7.7356 8.38068 6.10132 8.41577 5.9541C8.42065 5.93188 8.41998 5.90869 8.41388 5.88672C8.40778 5.86475 8.39636 5.84448 8.38068 5.82788C8.33862 5.79297 8.28253 5.80688 8.23346 5.81396C8.17029 5.82788 7.18848 6.48022 5.27386 7.77051C4.99335 7.95996 4.74091 8.05811 4.51648 8.05103C4.26398 8.04419 3.78711 7.91089 3.42944 7.7915C2.98761 7.65137 2.64398 7.57422 2.672 7.32861C2.68604 7.20239 2.86139 7.07617 3.19098 6.94312C5.23883 6.05225 6.59937 5.46313 7.27966 5.18262C9.22931 4.36914 9.62903 4.229 9.89557 4.229C9.95166 4.229 10.0849 4.24292 10.1691 4.31299C10.2392 4.36914 10.2603 4.44629 10.2672 4.50244C10.2603 4.54443 10.2742 4.67065 10.2672 4.76904Z" fill="#25A4E2" fill-opacity="1.000000" fill-rule="nonzero"/>
</svg>
