<svg width="13.011169" height="13.000000" viewBox="0 0 13.0112 13" fill="none" xmlns="http://www.w3.org/2000/svg" xmlns:xlink="http://www.w3.org/1999/xlink">
	<desc>
			Created with Pixso.
	</desc>
	<defs/>
	<path id="Vector" d="M6.0448 0.0078125C5.55167 0.0625 5.34467 0.0961914 5.04636 0.160156C2.67804 0.680664 0.793732 2.54053 0.184937 4.94824C-0.0616455 5.93457 -0.0616455 7.03662 0.184937 8.02881C0.321899 8.56787 0.589783 9.26807 0.82724 9.69092C1.00378 10.0107 1.00073 10.0532 0.720703 10.9878C0.45282 11.8799 0.428467 12.0381 0.541077 12.1812C0.611115 12.2725 0.766357 12.3486 0.878967 12.3486C0.9216 12.3486 1.30212 12.2451 1.72525 12.1172C2.73892 11.8159 2.61108 11.8037 3.54865 12.2939C4.45578 12.7715 5.40555 13 6.48621 13C7.54251 13.0029 8.42224 12.7988 9.37808 12.3335C11.1102 11.4932 12.3126 10.0439 12.7875 8.23291C13.1954 6.66504 13.0432 5.08252 12.3491 3.65771C11.3933 1.70312 9.60638 0.385254 7.47552 0.0654297C7.16504 0.0200195 6.2579 -0.0166016 6.0448 0.0078125ZM3.89264 5.81299C4.27924 6.03809 4.41013 6.47363 4.2153 6.86328C4.06311 7.16748 3.81046 7.32568 3.47559 7.32568C3.18335 7.32568 2.86374 7.10352 2.73892 6.81738C2.67804 6.67139 2.67499 6.37012 2.73587 6.22705C2.80286 6.0625 2.99463 5.86475 3.16815 5.78223C3.37817 5.68213 3.69171 5.69434 3.89264 5.81299ZM6.80582 5.77637C7.44812 6.06543 7.45728 6.95117 6.82104 7.25293C6.27008 7.51465 5.6308 7.06104 5.68866 6.44287C5.72519 6.02002 6.06308 5.7124 6.48621 5.7124C6.60492 5.7124 6.71756 5.73682 6.80582 5.77637ZM9.83167 5.78857C10.3279 6.02881 10.4435 6.69873 10.0569 7.08838C9.91385 7.22852 9.74945 7.30469 9.5455 7.31982C9.20761 7.34424 8.94278 7.20117 8.77231 6.89941C8.69012 6.75635 8.67795 6.70166 8.67795 6.51904C8.67795 6.33936 8.69318 6.27881 8.76926 6.1416C8.87277 5.95605 9.01889 5.8252 9.19543 5.7583C9.35678 5.7002 9.67944 5.7124 9.83167 5.78857Z" fill="#FCFCFC" fill-opacity="1.000000" fill-rule="nonzero"/>
</svg>
