<svg width="18.423859" height="15.739258" viewBox="0 0 18.4239 15.7393" fill="none" xmlns="http://www.w3.org/2000/svg" xmlns:xlink="http://www.w3.org/1999/xlink">
	<desc>
			Created with Pixso.
	</desc>
	<defs/>
	<path id="Vector" d="M16.5155 0.107666C16.742 0.0124512 16.9899 -0.0205078 17.2335 0.0124512C17.4771 0.0454102 17.7073 0.143066 17.9003 0.29541C18.0933 0.44751 18.2419 0.648682 18.3308 0.877686C18.4197 1.10693 18.4455 1.35571 18.4056 1.59814L16.3266 14.2087C16.125 15.4253 14.7903 16.1228 13.6747 15.5168C12.7416 15.01 11.3556 14.229 10.1089 13.4141C9.48557 13.0061 7.57614 11.7 7.81082 10.7703C8.01248 9.97559 11.2208 6.98901 13.0541 5.21362C13.7737 4.51587 13.4456 4.11353 12.5958 4.75513C10.4847 6.34839 7.09766 8.771 5.97748 9.45312C4.98932 10.0544 4.47415 10.157 3.85815 10.0544C2.73431 9.86743 1.69208 9.57788 0.8414 9.22485C-0.308105 8.74829 -0.252197 7.16772 0.840485 6.70776L16.5155 0.107666Z" fill="#FCFCFC" fill-opacity="1.000000" fill-rule="evenodd"/>
</svg>
