<svg width="12.500000" height="10.000000" viewBox="0 0 12.5 10" fill="none" xmlns="http://www.w3.org/2000/svg" xmlns:xlink="http://www.w3.org/1999/xlink">
	<desc>
			Created with Pixso.
	</desc>
	<defs/>
	<path id="Vector" d="M11.25 0L1.25 0C0.918488 0 0.600525 0.131699 0.366119 0.366119C0.131683 0.60054 0 0.91848 0 1.25L0 8.75C0 9.08152 0.131683 9.39946 0.366119 9.63388C0.600525 9.8683 0.918488 10 1.25 10L11.25 10C11.5815 10 11.8995 9.8683 12.1339 9.63388C12.3683 9.39946 12.5 9.08152 12.5 8.75L12.5 1.25C12.5 0.91848 12.3683 0.60054 12.1339 0.366119C11.8995 0.131699 11.5815 0 11.25 0ZM11.25 2.9375L6.25 6.27125L1.25 2.9375L1.25 1.43562L6.25 4.76875L11.25 1.43562L11.25 2.9375Z" fill="#FCFCFC" fill-opacity="1.000000" fill-rule="evenodd"/>
</svg>
