<svg width="16.000000" height="16.000000" viewBox="0 0 16 16" fill="none" xmlns="http://www.w3.org/2000/svg" xmlns:xlink="http://www.w3.org/1999/xlink">
	<desc>
			Created with Pixso.
	</desc>
	<defs>
		<clipPath id="clip6_552">
			<rect id="Social_btn_icon" width="16.000000" height="16.000000" fill="white" fill-opacity="0"/>
		</clipPath>
		<linearGradient id="paint_linear_6_551_0" x1="12.678042" y1="2.079391" x2="0.976041" y2="15.024836" gradientUnits="userSpaceOnUse">
			<stop stop-color="#52CD5F"/>
			<stop offset="1.000000" stop-color="#28B43E"/>
		</linearGradient>
	</defs>
	<g clip-path="url(#clip6_552)">
		<path id="Vector" d="M8.00067 0.975586C11.8803 0.975586 15.0253 4.12061 15.0253 8.00024C15.0253 11.8799 11.8803 15.0249 8.00067 15.0249C6.75925 15.0269 5.5397 14.6982 4.46729 14.073L0.978851 15.0249L1.92859 11.5349C1.30276 10.4622 0.973969 9.24219 0.976044 8.00024C0.976044 4.12061 4.12097 0.975586 8.00067 0.975586ZM5.60669 4.69873L5.46619 4.70435C5.37524 4.70972 5.28635 4.73364 5.20486 4.77441C5.12866 4.81763 5.05911 4.87158 4.99835 4.93457C4.91406 5.01392 4.86627 5.08276 4.815 5.14966C4.55518 5.4873 4.41528 5.9021 4.41742 6.32837C4.41882 6.67261 4.50873 7.00757 4.64923 7.3208C4.93652 7.95459 5.40927 8.62549 6.03308 9.24707C6.18341 9.39673 6.3309 9.54712 6.48965 9.68677C7.26477 10.3691 8.18839 10.8613 9.1871 11.124L9.58612 11.1851C9.71606 11.1921 9.84604 11.1824 9.97668 11.176C10.1813 11.1655 10.381 11.1101 10.5618 11.0137C10.6538 10.9663 10.7436 10.9148 10.8309 10.8591C10.8309 10.8591 10.8611 10.8396 10.9187 10.7959C11.0135 10.7258 11.0718 10.6758 11.1505 10.5938C11.2088 10.5332 11.2594 10.4624 11.298 10.3816C11.3528 10.2671 11.4076 10.0486 11.4301 9.8667C11.4469 9.72754 11.442 9.65161 11.4399 9.60474C11.4371 9.52954 11.3746 9.45142 11.3065 9.41846L10.8976 9.23511C10.8976 9.23511 10.2865 8.96899 9.91275 8.79883C9.87366 8.78174 9.83176 8.77197 9.78912 8.77002C9.74106 8.76514 9.6925 8.77051 9.6467 8.78589C9.60089 8.80127 9.55893 8.82642 9.52359 8.85938C9.52008 8.85791 9.47302 8.89795 8.96515 9.51318C8.93597 9.55249 8.89584 9.58203 8.84979 9.59839C8.80377 9.6145 8.75391 9.6167 8.70663 9.60474C8.66089 9.59229 8.61603 9.5769 8.57248 9.55835C8.48535 9.52173 8.45514 9.50757 8.39545 9.48242C7.99228 9.3064 7.61902 9.06885 7.28906 8.77783C7.20056 8.70044 7.11838 8.61621 7.03409 8.53467C6.75772 8.27002 6.51688 7.9707 6.31757 7.64404L6.27612 7.57739C6.24634 7.53247 6.22229 7.48413 6.20447 7.43335C6.17776 7.33008 6.24731 7.24707 6.24731 7.24707C6.24731 7.24707 6.41803 7.0603 6.49741 6.95923C6.57468 6.86084 6.63998 6.76538 6.68213 6.69702C6.76505 6.56372 6.79102 6.42676 6.74747 6.32056C6.55078 5.84009 6.34708 5.36182 6.13773 4.88696C6.09628 4.79272 5.97336 4.72534 5.86166 4.71191C5.82373 4.70776 5.7858 4.70361 5.74786 4.70068C5.65353 4.69604 5.55899 4.69702 5.46478 4.70361L5.60599 4.698L5.60669 4.69873Z" fill="url(#paint_linear_6_551_0)" fill-opacity="1.000000" fill-rule="nonzero"/>
	</g>
</svg>
