<svg width="21.090912" height="17.085449" viewBox="0 0 21.0909 17.0854" fill="none" xmlns="http://www.w3.org/2000/svg" xmlns:xlink="http://www.w3.org/1999/xlink">
	<desc>
			Created with Pixso.
	</desc>
	<defs/>
	<path id="Vector" d="M2.85867 0L2.85867 6.59424C3.77899 5.39722 4.88217 4.79468 6.16156 4.79468C6.82053 4.79468 7.41061 4.93188 7.94 5.2041C8.47086 5.47461 8.86771 5.82202 9.13574 6.24365C9.40524 6.66919 9.58737 7.13525 9.68585 7.64893C9.78357 8.1604 9.83246 8.95581 9.83246 10.0349L9.83246 17.0854L6.97305 17.0854L6.97305 10.7354C6.97305 9.47534 6.9212 8.67725 6.81238 8.33789C6.71042 8.00562 6.50812 7.72095 6.23856 7.53027C5.96313 7.32764 5.62033 7.22729 5.20645 7.22729C4.7326 7.22729 4.30762 7.35669 3.93817 7.61353C3.56055 7.87183 3.28958 8.25806 3.1178 8.77417C2.94308 9.29102 2.85571 10.0544 2.85867 11.0647L2.85571 17.0854L0 17.0854L0 0L2.85941 0L2.85867 0ZM14.1179 0L14.1179 6.59424C15.0389 5.39722 16.1414 4.79468 17.42 4.79468C18.0768 4.79468 18.6713 4.93188 19.2014 5.2041C19.73 5.47461 20.1269 5.82202 20.3934 6.24365C20.6624 6.6665 20.8496 7.14453 20.9436 7.64893C21.042 8.1604 21.0909 8.95581 21.0909 10.0349L21.0909 17.0854L18.2345 17.0854L18.2345 10.7354C18.2345 9.47534 18.1804 8.67725 18.0716 8.33789C17.9696 8.00513 17.7667 7.72021 17.4963 7.53027C17.2238 7.32764 16.8781 7.22729 16.4642 7.22729C15.9911 7.22729 15.5661 7.35669 15.1959 7.61353C14.8235 7.87183 14.551 8.25806 14.377 8.77417C14.2052 9.29102 14.1179 10.0544 14.1179 11.0647L14.1179 17.0854L11.2621 17.0854L11.2621 0L14.1179 0Z" fill="#FCFCFC" fill-opacity="1.000000" fill-rule="nonzero"/>
</svg>
