<svg width="17.471680" height="16.500977" viewBox="0 0 17.4717 16.501" fill="none" xmlns="http://www.w3.org/2000/svg" xmlns:xlink="http://www.w3.org/1999/xlink">
	<desc>
			Created with Pixso.
	</desc>
	<defs/>
	<path id="Vector" d="M3.66666 1.83423C3.66641 2.32056 3.47302 2.78662 3.12906 3.13037C2.78506 3.47388 2.31863 3.66699 1.83243 3.66675C1.34619 3.6665 0.879974 3.47314 0.536316 3.12915C0.192688 2.78516 -0.000244141 2.3186 0 1.83252C0.000244141 1.34619 0.193634 0.879883 0.537628 0.536377C0.881622 0.192627 1.34802 -0.000244141 1.83426 0C2.3205 0.000244141 2.78671 0.193604 3.13034 0.537598C3.474 0.881592 3.6669 1.3479 3.66666 1.83423ZM3.72168 5.02417L0.0549927 5.02417L0.0549927 16.501L3.72168 16.501L3.72168 5.02417ZM9.51501 5.02417L5.86667 5.02417L5.86667 16.501L9.47833 16.501L9.47833 10.4785C9.47833 7.12354 13.8508 6.81177 13.8508 10.4785L13.8508 16.501L17.4717 16.501L17.4717 9.23169C17.4717 3.57593 11 3.78687 9.47833 6.56421L9.51501 5.02417Z" fill="#FCFCFC" fill-opacity="1.000000" fill-rule="nonzero"/>
</svg>
