<svg width="18.000000" height="18.000000" viewBox="0 0 18 18" fill="none" xmlns="http://www.w3.org/2000/svg" xmlns:xlink="http://www.w3.org/1999/xlink">
	<desc>
			Created with Pixso.
	</desc>
	<defs>
		<clipPath id="clip2_1307">
			<rect id="basil:phone-solid" width="18.000000" height="18.000000" fill="white" fill-opacity="0"/>
		</clipPath>
	</defs>
	<rect id="basil:phone-solid" width="18.000000" height="18.000000" fill="#FFFFFF" fill-opacity="0"/>
	<g clip-path="url(#clip2_1307)">
		<path id="Vector" d="M3.52676 7.34375C5.02452 10.6055 7.68582 13.1904 10.9896 14.5928L11.5201 14.8291C12.1075 15.0908 12.7685 15.1367 13.3864 14.9585C14.0044 14.7808 14.5397 14.3901 14.8981 13.8564L15.5916 12.8232C15.7001 12.6611 15.7441 12.4648 15.7148 12.272C15.6855 12.0791 15.585 11.9043 15.4333 11.7817L13.0835 9.88623C13.0016 9.82031 12.9073 9.77148 12.8062 9.74268C12.705 9.71436 12.5991 9.70654 12.4949 9.71973C12.3906 9.73291 12.2901 9.76709 12.1994 9.82031C12.1087 9.87354 12.0297 9.94434 11.9671 10.0288L11.24 11.0098C9.3736 10.0879 7.86288 8.57666 6.94144 6.70996L7.9213 5.98291C8.00574 5.92041 8.07666 5.84131 8.12979 5.75098C8.18295 5.66016 8.21722 5.55957 8.23056 5.45557C8.2439 5.35107 8.23602 5.24512 8.2074 5.14404C8.1788 5.04297 8.13004 4.94873 8.06406 4.8667L6.1683 2.51709C6.0459 2.36523 5.87111 2.26465 5.67834 2.23535C5.48558 2.20605 5.28882 2.25 5.12683 2.3584L4.0869 3.05615C3.5497 3.4165 3.15784 3.95557 2.98109 4.57764C2.80437 5.19971 2.85426 5.86475 3.12187 6.45361L3.52676 7.34375Z" fill="#145CEF" fill-opacity="1.000000" fill-rule="evenodd"/>
	</g>
</svg>
